<svg width="41" height="41" viewBox="0 0 41 41" fill="none" xmlns="http://www.w3.org/2000/svg">
<path fill-rule="evenodd" clip-rule="evenodd" d="M17.4866 8.54167C16.8395 8.54167 16.248 8.90725 15.9586 9.48601L14.7225 11.9583H11.9583C10.0714 11.9583 8.54167 13.488 8.54167 15.375V29.0417C8.54167 30.9286 10.0714 32.4583 11.9583 32.4583H29.0417C30.9286 32.4583 32.4583 30.9286 32.4583 29.0417V15.375C32.4583 13.488 30.9286 11.9583 29.0417 11.9583H26.2775L25.0414 9.48601C24.752 8.90725 24.1605 8.54167 23.5134 8.54167H17.4866ZM12.9027 7.95803C13.7708 6.22176 15.5454 5.125 17.4866 5.125H23.5134C25.4546 5.125 27.2292 6.22176 28.0973 7.95803L28.3891 8.54167H29.0417C32.8156 8.54167 35.875 11.6011 35.875 15.375V29.0417C35.875 32.8156 32.8156 35.875 29.0417 35.875H11.9583C8.18439 35.875 5.125 32.8156 5.125 29.0417V15.375C5.125 11.6011 8.18439 8.54167 11.9583 8.54167H12.6109L12.9027 7.95803Z" fill="#222222"/>
<path fill-rule="evenodd" clip-rule="evenodd" d="M20.5003 25.625C22.3873 25.625 23.917 24.0953 23.917 22.2083C23.917 20.3214 22.3873 18.7917 20.5003 18.7917C18.6134 18.7917 17.0837 20.3214 17.0837 22.2083C17.0837 24.0953 18.6134 25.625 20.5003 25.625ZM20.5003 29.0417C24.2743 29.0417 27.3337 25.9823 27.3337 22.2083C27.3337 18.4344 24.2743 15.375 20.5003 15.375C16.7264 15.375 13.667 18.4344 13.667 22.2083C13.667 25.9823 16.7264 29.0417 20.5003 29.0417Z" fill="#222222"/>
<rect x="0.5" y="0.5" width="40" height="40" rx="9.5" stroke="black"/>
</svg>
