<svg width="46" height="45" viewBox="0 0 46 45" fill="none" xmlns="http://www.w3.org/2000/svg">
<mask id="mask0_132_2048" style="mask-type:alpha" maskUnits="userSpaceOnUse" x="0" y="0" width="46" height="45">
<rect width="46" height="45" fill="#D9D9D9"/>
</mask>
<g mask="url(#mask0_132_2048)">
<path d="M18.3043 32.9529C18.0487 32.9529 17.8092 32.9138 17.5855 32.8357C17.3619 32.7576 17.1543 32.6248 16.9626 32.4373L8.72096 24.3748C8.36957 24.031 8.20187 23.5857 8.21784 23.0388C8.23381 22.4919 8.41749 22.0466 8.76888 21.7029C9.12027 21.3591 9.56749 21.1873 10.1105 21.1873C10.6536 21.1873 11.1008 21.3591 11.4522 21.7029L18.3043 28.406L34.548 12.5154C34.8994 12.1716 35.3546 11.9998 35.9137 11.9998C36.4727 11.9998 36.9279 12.1716 37.2793 12.5154C37.6307 12.8591 37.8064 13.3044 37.8064 13.8513C37.8064 14.3982 37.6307 14.8435 37.2793 15.1873L19.646 32.4373C19.4543 32.6248 19.2467 32.7576 19.023 32.8357C18.7994 32.9138 18.5599 32.9529 18.3043 32.9529Z" fill="#222222"/>
</g>
</svg>
