<svg width="49" height="46" viewBox="0 0 49 46" fill="none" xmlns="http://www.w3.org/2000/svg">
<mask id="mask0_132_2036" style="mask-type:alpha" maskUnits="userSpaceOnUse" x="0" y="0" width="49" height="46">
<rect width="48.7436" height="46" fill="#D9D9D9"/>
</mask>
<g mask="url(#mask0_132_2036)">
<path d="M24.3713 25.6834L14.4195 35.075C14.0471 35.4264 13.5732 35.6021 12.9978 35.6021C12.4223 35.6021 11.9484 35.4264 11.5761 35.075C11.2038 34.7236 11.0176 34.2764 11.0176 33.7334C11.0176 33.1903 11.2038 32.7431 11.5761 32.3917L21.5279 23L11.5761 13.6084C11.2038 13.257 11.0176 12.8098 11.0176 12.2667C11.0176 11.7236 11.2038 11.2764 11.5761 10.925C11.9484 10.5736 12.4223 10.3979 12.9978 10.3979C13.5732 10.3979 14.0471 10.5736 14.4195 10.925L24.3713 20.3167L34.3231 10.925C34.6954 10.5736 35.1693 10.3979 35.7448 10.3979C36.3202 10.3979 36.7941 10.5736 37.1665 10.925C37.5388 11.2764 37.725 11.7236 37.725 12.2667C37.725 12.8098 37.5388 13.257 37.1665 13.6084L27.2147 23L37.1665 32.3917C37.5388 32.7431 37.725 33.1903 37.725 33.7334C37.725 34.2764 37.5388 34.7236 37.1665 35.075C36.7941 35.4264 36.3202 35.6021 35.7448 35.6021C35.1693 35.6021 34.6954 35.4264 34.3231 35.075L24.3713 25.6834Z" fill="#222222"/>
</g>
</svg>
