<svg width="38" height="38" viewBox="0 0 38 38" fill="none" xmlns="http://www.w3.org/2000/svg">
<path d="M6.33301 33.25C6.33301 32.3755 7.04189 31.6667 7.91634 31.6667H30.083C30.9575 31.6667 31.6663 32.3755 31.6663 33.25C31.6663 34.1244 30.9575 34.8333 30.083 34.8333H7.91634C7.04189 34.8333 6.33301 34.1244 6.33301 33.25Z" fill="#222222"/>
<path fill-rule="evenodd" clip-rule="evenodd" d="M19.6521 5.02628C22.1255 2.55297 26.1355 2.55298 28.6088 5.02629L29.808 6.22544C32.2813 8.69876 32.2813 12.7088 29.8079 15.1821L18.8733 26.1167C18.434 26.556 17.8753 26.8564 17.2666 26.9804L10.1359 28.4338C7.91202 28.8871 5.94737 26.9225 6.40057 24.6986L7.85377 17.5677C7.97782 16.959 8.2782 16.4002 8.71749 15.9609L19.6521 5.02628ZM26.3696 7.26547C25.133 6.02881 23.128 6.02881 21.8913 7.26546L21.2395 7.91723L26.917 13.5947L27.5688 12.943C28.8054 11.7063 28.8054 9.70127 27.5688 8.46461L26.3696 7.26547ZM13.3228 15.8339L19.0003 10.1564L24.6778 15.8339L19.0003 21.5114L13.3228 15.8339ZM11.0837 18.073L10.9567 18.2L9.50346 25.3309L16.6341 23.8775L16.7612 23.7505L11.0837 18.073Z" fill="#222222"/>
</svg>
