<svg width="50" height="50" viewBox="0 0 50 50" fill="none" xmlns="http://www.w3.org/2000/svg">
<path d="M33.175 39.9635L31.3283 44.3927C30.9703 45.2514 31.8319 46.113 32.6906 45.7551L37.1199 43.9086C37.371 43.8039 37.5991 43.6511 37.7915 43.4587L45.2145 36.0355C46.0281 35.2219 46.0281 33.9028 45.2145 33.0892L43.9941 31.869C43.1805 31.0554 41.8615 31.0554 41.0479 31.869L33.6248 39.2921C33.4325 39.4844 33.2797 39.7125 33.175 39.9635Z" fill="#0019FF"/>
<path d="M18.75 22.9167C21.0512 22.9167 22.9167 21.0512 22.9167 18.75C22.9167 16.4489 21.0512 14.5834 18.75 14.5834C16.4488 14.5834 14.5833 16.4489 14.5833 18.75C14.5833 21.0512 16.4488 22.9167 18.75 22.9167Z" fill="#222222"/>
<path d="M31.0621 27.1097C31.2236 27.0666 31.3931 27.063 31.5563 27.0992C31.5777 27.1039 31.6973 27.1303 32.2276 27.4626C33.2027 28.0734 34.4883 27.7781 35.0991 26.8031C35.71 25.828 35.4147 24.5424 34.4396 23.9315C33.8622 23.5698 33.228 23.2021 32.4585 23.0314C31.6426 22.8504 30.7952 22.8684 29.9878 23.0839C29.0608 23.3313 28.2575 23.9076 27.4569 24.4819L27.2629 24.6208L22.0429 28.348C21.0446 29.0607 20.9209 29.1178 20.8361 29.1438C20.6931 29.1878 20.5424 29.2004 20.394 29.1809C20.3062 29.1693 20.1746 29.1336 19.0717 28.5968L17.971 28.0612L17.7977 27.9766C17.0714 27.6214 16.3409 27.2642 15.5465 27.1434C14.853 27.0379 14.1453 27.0737 13.4659 27.2484C12.6877 27.4486 11.9969 27.8776 11.31 28.3041L11.1462 28.4057L7.23797 30.8222C6.25934 31.4273 5.95655 32.7112 6.56167 33.6898C7.16678 34.6685 8.45065 34.9712 9.42928 34.3661L13.3375 31.9496C14.3062 31.3505 14.4231 31.3045 14.504 31.2837C14.6398 31.2488 14.7814 31.2416 14.9201 31.2627C15.0026 31.2753 15.1235 31.3093 16.1477 31.8077L17.2484 32.3434L17.4354 32.4347C18.2155 32.8163 18.9995 33.1998 19.8497 33.3118C20.5912 33.4095 21.3452 33.3464 22.0602 33.1266C22.8799 32.8747 23.5891 32.3661 24.2948 31.8601L24.464 31.739L29.6841 28.0119C30.8227 27.1989 30.9674 27.135 31.0621 27.1097Z" fill="#222222"/>
<path fill-rule="evenodd" clip-rule="evenodd" d="M21.5775 6.25H28.4225C30.6804 6.24998 32.5016 6.24996 33.9763 6.37045C35.4947 6.49452 36.8285 6.75663 38.0624 7.38535C40.0224 8.38403 41.616 9.97758 42.6146 11.9376C43.2434 13.1715 43.5055 14.5053 43.6295 16.0237C43.75 17.4984 43.75 19.3196 43.75 21.5774V25C43.75 26.1506 42.8173 27.0833 41.6667 27.0833C40.5161 27.0833 39.5833 26.1506 39.5833 25V21.6667C39.5833 19.2987 39.5817 17.6481 39.4767 16.363C39.3737 15.1022 39.1817 14.3779 38.9021 13.8292C38.3029 12.6532 37.3468 11.6971 36.1708 11.0979C35.6221 10.8183 34.8978 10.6263 33.637 10.5233C32.3519 10.4183 30.7013 10.4167 28.3333 10.4167H21.6667C19.2987 10.4167 17.6481 10.4183 16.363 10.5233C15.1022 10.6263 14.3779 10.8183 13.8292 11.0979C12.6532 11.6971 11.6971 12.6532 11.0979 13.8292C10.8183 14.3779 10.6263 15.1022 10.5233 16.363C10.4183 17.6481 10.4167 19.2987 10.4167 21.6667V28.3333C10.4167 30.7013 10.4183 32.3519 10.5233 33.637C10.6263 34.8978 10.8183 35.6221 11.0979 36.1708C11.6971 37.3468 12.6532 38.3029 13.8292 38.9021C14.3779 39.1817 15.1022 39.3737 16.363 39.4767C17.6481 39.5817 19.2987 39.5833 21.6667 39.5833H25C26.1506 39.5833 27.0833 40.5161 27.0833 41.6667C27.0833 42.8173 26.1506 43.75 25 43.75H21.5774C19.3196 43.75 17.4984 43.75 16.0237 43.6295C14.5053 43.5055 13.1715 43.2434 11.9376 42.6146C9.97758 41.616 8.38403 40.0224 7.38535 38.0624C6.75663 36.8285 6.49452 35.4947 6.37045 33.9763C6.24996 32.5016 6.24998 30.6804 6.25 28.4225V21.5775C6.24998 19.3196 6.24996 17.4984 6.37045 16.0237C6.49452 14.5053 6.75663 13.1715 7.38535 11.9376C8.38403 9.97758 9.97758 8.38403 11.9376 7.38535C13.1715 6.75663 14.5053 6.49452 16.0237 6.37045C17.4984 6.24996 19.3196 6.24998 21.5775 6.25Z" fill="#222222"/>
</svg>
