<svg width="38" height="38" viewBox="0 0 38 38" fill="none" xmlns="http://www.w3.org/2000/svg">
<path fill-rule="evenodd" clip-rule="evenodd" d="M19.792 3.16667C20.8835 3.16667 21.8719 3.6085 22.588 4.32307C22.6157 4.35075 22.6431 4.37884 22.67 4.40734C23.3029 5.0774 23.7044 5.96842 23.7466 6.95252L23.7479 6.98575C23.7495 7.03197 23.7503 7.07839 23.7503 7.125V7.14758C23.7503 7.21195 23.7894 7.2698 23.8489 7.29446C23.9084 7.31913 23.9769 7.30586 24.0225 7.26032L24.0385 7.24435C24.0714 7.21139 24.1048 7.17914 24.1386 7.14758L24.163 7.125C24.8887 6.45896 25.8027 6.11282 26.7241 6.0866C26.7633 6.08548 26.8025 6.08495 26.8416 6.08499C27.8533 6.08605 28.8645 6.47251 29.6364 7.24435L30.756 8.36394C31.5278 9.13578 31.9143 10.1471 31.9153 11.1587C31.9154 11.1979 31.9148 11.2371 31.9137 11.2762C31.8875 12.1976 31.5414 13.1116 30.8753 13.8373L30.8527 13.8617C30.8212 13.8955 30.7889 13.9289 30.756 13.9619L30.74 13.9778C30.6945 14.0234 30.6812 14.0919 30.7059 14.1514C30.7305 14.2109 30.7884 14.25 30.8527 14.25H30.8753C30.9219 14.25 30.9684 14.2508 31.0146 14.2524L31.0478 14.2537C32.0319 14.2959 32.9229 14.6974 33.593 15.3304C33.6215 15.3573 33.6496 15.3846 33.6773 15.4123C34.3918 16.1284 34.8337 17.1168 34.8337 18.2083V19.7917C34.8337 20.8832 34.3918 21.8716 33.6773 22.5876C33.6496 22.6154 33.6215 22.6427 33.593 22.6696C32.9229 23.3026 32.0319 23.7041 31.0478 23.7463L31.0146 23.7476C30.9684 23.7492 30.9219 23.75 30.8753 23.75H30.8527C30.7884 23.75 30.7305 23.7891 30.7059 23.8486C30.6812 23.9081 30.6945 23.9766 30.74 24.0222L30.756 24.0381C30.7889 24.0711 30.8212 24.1045 30.8527 24.1383L30.8753 24.1627C31.5414 24.8884 31.8875 25.8024 31.9137 26.7238C31.9148 26.7629 31.9154 26.8021 31.9153 26.8413C31.9143 27.8529 31.5278 28.8642 30.756 29.6361L29.6364 30.7556C28.8645 31.5275 27.8533 31.9139 26.8416 31.915C26.8025 31.9151 26.7633 31.9145 26.7241 31.9134C25.8027 31.8872 24.8887 31.541 24.163 30.875L24.1386 30.8524C24.1048 30.8209 24.0714 30.7886 24.0385 30.7556L24.0225 30.7397C23.977 30.6941 23.9084 30.6809 23.8489 30.7055C23.7894 30.7302 23.7503 30.7881 23.7503 30.8524V30.875C23.7503 30.9216 23.7495 30.968 23.7479 31.0143L23.7466 31.0475C23.7044 32.0316 23.3029 32.9226 22.67 33.5927C22.6431 33.6212 22.6157 33.6492 22.588 33.6769C21.8719 34.3915 20.8835 34.8333 19.792 34.8333H18.2087C17.1171 34.8333 16.1288 34.3915 15.4127 33.6769C15.3849 33.6492 15.3576 33.6212 15.3307 33.5927C14.6977 32.9226 14.2962 32.0316 14.254 31.0475L14.2527 31.0143C14.2511 30.968 14.2503 30.9216 14.2503 30.875V30.8524C14.2503 30.7881 14.2112 30.7302 14.1518 30.7055C14.0923 30.6809 14.0237 30.6941 13.9782 30.7397L13.9622 30.7556C13.9292 30.7886 13.8958 30.8209 13.862 30.8524L13.8376 30.875C13.1119 31.541 12.1979 31.8872 11.2765 31.9134C11.2374 31.9145 11.1982 31.9151 11.159 31.915C10.1474 31.9139 9.1361 31.5275 8.36426 30.7556L7.24467 29.6361C6.47283 28.8642 6.08638 27.8529 6.08531 26.8413C6.08527 26.8021 6.08581 26.7629 6.08692 26.7238C6.11315 25.8024 6.45928 24.8884 7.12533 24.1627L7.14791 24.1383C7.17946 24.1045 7.21172 24.0711 7.24467 24.0381L7.26064 24.0222C7.30619 23.9766 7.31945 23.9081 7.29478 23.8486C7.27012 23.7891 7.21227 23.75 7.14791 23.75H7.12533C7.07872 23.75 7.0323 23.7492 6.98608 23.7476L6.95285 23.7463C5.96874 23.7041 5.07772 23.3026 4.40766 22.6696C4.37917 22.6427 4.35108 22.6154 4.32339 22.5876C3.60882 21.8716 3.16699 20.8832 3.16699 19.7917V18.2083C3.16699 17.1168 3.60882 16.1284 4.32339 15.4123C4.35108 15.3846 4.37917 15.3573 4.40766 15.3304C5.07772 14.6974 5.96874 14.2959 6.95285 14.2537L6.98608 14.2524C7.0323 14.2508 7.07872 14.25 7.12533 14.25H7.14791C7.21227 14.25 7.27012 14.2109 7.29478 14.1514C7.31945 14.0919 7.30619 14.0234 7.26064 13.9778L7.24467 13.9619C7.21172 13.9289 7.17946 13.8955 7.14791 13.8617L7.12533 13.8373C6.45928 13.1116 6.11315 12.1976 6.08692 11.2762C6.08581 11.2371 6.08527 11.1979 6.08531 11.1587C6.08638 10.1471 6.47283 9.13578 7.24467 8.36394L8.36426 7.24435C9.1361 6.47251 10.1474 6.08605 11.159 6.08499C11.1982 6.08495 11.2374 6.08548 11.2765 6.0866C12.1979 6.11282 13.1119 6.45896 13.8376 7.125L13.862 7.14758C13.8958 7.17914 13.9292 7.21139 13.9622 7.24435L13.9782 7.26032C14.0237 7.30586 14.0923 7.31913 14.1518 7.29446C14.2112 7.2698 14.2503 7.21195 14.2503 7.14758V7.125C14.2503 7.07839 14.2511 7.03197 14.2527 6.98575L14.254 6.95252C14.2962 5.96842 14.6977 5.0774 15.3307 4.40734C15.3576 4.37884 15.3849 4.35075 15.4127 4.32307C16.1288 3.6085 17.1171 3.16667 18.2087 3.16667H19.792ZM17.417 30.875C17.417 31.3122 17.7714 31.6667 18.2087 31.6667H19.792C20.2292 31.6667 20.5837 31.3122 20.5837 30.875V30.8524C20.5837 29.4914 21.4089 28.2892 22.6359 27.7804C23.8655 27.2705 25.2999 27.5387 26.2617 28.5005L26.2776 28.5165C26.5868 28.8256 27.0881 28.8256 27.3972 28.5165L28.5168 27.3969C28.826 27.0877 28.826 26.5865 28.5168 26.2773L28.5008 26.2613C27.5391 25.2996 27.2708 23.8651 27.7807 22.6356C28.2896 21.4085 29.4918 20.5833 30.8527 20.5833H30.8753C31.3125 20.5833 31.667 20.2289 31.667 19.7917V18.2083C31.667 17.7711 31.3125 17.4167 30.8753 17.4167H30.8527C29.4918 17.4167 28.2896 16.5915 27.7807 15.3644C27.2708 14.1348 27.5391 12.7004 28.5008 11.7387L28.5168 11.7227C28.826 11.4135 28.826 10.9123 28.5168 10.6031L27.3972 9.48352C27.0881 9.17436 26.5868 9.17436 26.2776 9.48352L26.2617 9.49949C25.2999 10.4613 23.8655 10.7295 22.6359 10.2196C21.4088 9.71076 20.5837 8.50853 20.5837 7.14758V7.125C20.5837 6.68777 20.2292 6.33333 19.792 6.33333H18.2087C17.7714 6.33333 17.417 6.68777 17.417 7.125V7.14758C17.417 8.50853 16.5918 9.71076 15.3647 10.2196C14.1351 10.7295 12.7007 10.4613 11.739 9.49949L11.723 9.48352C11.4139 9.17436 10.9126 9.17436 10.6034 9.48352L9.48385 10.6031C9.17468 10.9123 9.17468 11.4135 9.48385 11.7227L9.49981 11.7387C10.4616 12.7004 10.7298 14.1348 10.2199 15.3644C9.71108 16.5915 8.50887 17.4167 7.14791 17.4167H7.12533C6.6881 17.4167 6.33366 17.7711 6.33366 18.2083V19.7917C6.33366 20.2289 6.6881 20.5833 7.12533 20.5833H7.14791C8.50887 20.5833 9.71108 21.4085 10.2199 22.6356C10.7298 23.8651 10.4616 25.2996 9.49982 26.2613L9.48385 26.2773C9.17468 26.5865 9.17468 27.0877 9.48385 27.3969L10.6034 28.5165C10.9126 28.8256 11.4139 28.8256 11.723 28.5165L11.739 28.5005C12.7008 27.5387 14.1352 27.2705 15.3647 27.7804C16.5918 28.2892 17.417 29.4914 17.417 30.8524V30.875Z" fill="#222222"/>
<path fill-rule="evenodd" clip-rule="evenodd" d="M19.0003 22.1667C20.7492 22.1667 22.167 20.7489 22.167 19C22.167 17.2511 20.7492 15.8333 19.0003 15.8333C17.2514 15.8333 15.8337 17.2511 15.8337 19C15.8337 20.7489 17.2514 22.1667 19.0003 22.1667ZM19.0003 25.3333C22.4981 25.3333 25.3337 22.4978 25.3337 19C25.3337 15.5022 22.4981 12.6667 19.0003 12.6667C15.5025 12.6667 12.667 15.5022 12.667 19C12.667 22.4978 15.5025 25.3333 19.0003 25.3333Z" fill="#222222"/>
</svg>
